<svg xmlns="http://www.w3.org/2000/svg" viewBox="0 0 380 180" width="380" height="180" role="img" aria-label="قاموس خِطاب: 1367 عبارة، 780 جندرية 57%، 587 محايدة 43%">
  <!-- Design by Ahmed Almnsour -->
  <g transform="rotate(-90 280 90)">
    <circle cx="280" cy="90" r="54" fill="none" stroke="#EDE9FE" stroke-width="18"/>
    <circle cx="280" cy="90" r="54" fill="none" stroke="#5B4FC4" stroke-width="18" stroke-dasharray="193.6 339.29" stroke-dashoffset="0"/>
    <circle cx="280" cy="90" r="54" fill="none" stroke="#A78BFA" stroke-width="18" stroke-dasharray="145.69 339.29" stroke-dashoffset="-193.6"/>
  </g>
  <text x="280" y="86" text-anchor="middle" font-family="'Segoe UI',system-ui,sans-serif" font-weight="700" font-size="24" fill="#312E81">1367</text>
  <g transform="translate(264.55,108)" fill="#6B7280"><path d="M195 565Q165 565 147.0 583.0Q129 601 129 632Q129 697 195 697Q225 697 242.5 679.5Q260 662 260 632Q260 565 195 565ZM348 565Q318 565 300.0 583.5Q282 602 282 632Q282 661 300.0 679.0Q318 697 348 697Q378 697 395.5 679.5Q413 662 413 632Q413 565 348 565ZM272 0Q177 0 123 64Q77 119 77 205Q77 295 129.0 362.0Q181 429 277 461Q379 427 431 354Q478 290 478 205Q478 106 418 50Q366 0 282 0ZM271 121H284Q354 121 354 204Q354 299 277 343Q201 299 201 206Q201 121 271 121Z" transform="translate(0.00,0) scale(0.01400,-0.01400)"/><path d="M270 62Q270 -54 206 -126Q147 -193 50 -193Q-13 -193 -73 -161V-51Q-21 -80 29 -80Q84 -80 114.5 -44.5Q145 -9 145 54V377L270 444Z" transform="translate(7.57,0) scale(0.01400,-0.01400)"/><path d="M274 0Q183 0 133 58Q90 108 90 187V579L216 645V193Q216 154 232.0 137.5Q248 121 286 121H376V0Z" transform="translate(12.61,0) scale(0.01400,-0.01400)"/><path d="M326 121H416V0H314Q241 0 193 39Q145 0 72 0H-30V121H60Q98 121 114.0 137.5Q130 154 130 193V378L256 444V193Q256 154 272.0 137.5Q288 121 326 121ZM199 -91Q229 -91 246.5 -108.5Q264 -126 264 -156Q264 -223 199 -223Q169 -223 151.0 -205.0Q133 -187 133 -156Q133 -127 151.0 -109.0Q169 -91 199 -91Z" transform="translate(17.46,0) scale(0.01400,-0.01400)"/><path d="M524 121V0H-30V121H118Q90 176 90 243Q90 349 164 411Q224 461 303 461Q410 461 476 369V258Q403 344 317 344Q271 344 243.5 315.5Q216 287 216 239Q216 184 250.5 152.5Q285 121 345 121Z" transform="translate(22.86,0) scale(0.01400,-0.01400)"/></g>
  <g transform="translate(168,56)">
    <circle cx="0" cy="8" r="8" fill="#5B4FC4"/>
    <circle cx="0" cy="62" r="8" fill="#A78BFA"/>
    <text x="-16" y="32" text-anchor="end" font-family="'Segoe UI',system-ui,sans-serif" font-size="13" fill="#6B7280">780 &#183; 57%</text>
    <text x="-16" y="86" text-anchor="end" font-family="'Segoe UI',system-ui,sans-serif" font-size="13" fill="#6B7280">587 &#183; 43%</text>
  </g>
  <g transform="translate(109.70,69)" fill="#312E81"><path d="M160 565Q130 565 112.0 583.0Q94 601 94 632Q94 697 160 697Q190 697 207.5 679.5Q225 662 225 632Q225 565 160 565ZM314 565Q284 565 266.0 583.0Q248 601 248 632Q248 697 314 697Q344 697 361.5 679.5Q379 662 379 632Q379 565 314 565ZM483 121H573V0H471Q378 0 327 62Q284 29 222 29Q130 29 75 98Q30 155 30 235Q30 334 94 396Q148 448 219 448Q256 448 287 434V460L412 526V193Q412 154 428.5 137.5Q445 121 483 121ZM287 308Q261 330 228 330Q195 330 174.5 303.0Q154 276 154 232Q154 188 174.0 162.0Q194 136 229 136Q267 136 288 162Q287 170 287 187Z" transform="translate(0.00,0) scale(0.01500,-0.01500)"/><path d="M-30 0V121H60Q98 121 114.0 137.5Q130 154 130 193V378L256 444V187Q256 96 200 45Q151 0 72 0ZM24 -223Q-6 -223 -24.0 -205.0Q-42 -187 -42 -156Q-42 -91 24 -91Q54 -91 71.5 -108.5Q89 -126 89 -156Q89 -223 24 -223ZM178 -223Q148 -223 130.0 -205.0Q112 -187 112 -156Q112 -91 178 -91Q208 -91 225.5 -108.5Q243 -126 243 -156Q243 -223 178 -223Z" transform="translate(8.14,0) scale(0.01500,-0.01500)"/><path d="M270 62Q270 -54 206 -126Q147 -193 50 -193Q-13 -193 -73 -161V-51Q-21 -80 29 -80Q84 -80 114.5 -44.5Q145 -9 145 54V377L270 444Z" transform="translate(14.31,0) scale(0.01500,-0.01500)"/><path d="M10 0 73 121H231Q282 121 282 180Q282 290 176 349L238 456Q394 365 406 209Q410 159 428.5 140.0Q447 121 492 121H568V0H485Q411 0 360 41Q323 0 254 0Z" transform="translate(19.71,0) scale(0.01500,-0.01500)"/><path d="M166 545Q136 545 118.0 563.0Q100 581 100 612Q100 641 118.0 659.0Q136 677 166 677Q196 677 213.5 659.5Q231 642 231 612Q231 545 166 545ZM326 121H416V0H314Q241 0 193 39Q145 0 72 0H-30V121H60Q98 121 114.0 137.5Q130 154 130 193V378L256 444V193Q256 154 272.0 137.5Q288 121 326 121Z" transform="translate(27.78,0) scale(0.01500,-0.01500)"/><path d="M-30 0V121H119Q295 121 399 226Q331 345 234 345Q154 345 59 258V369Q143 461 249 461Q327 461 401.0 404.0Q475 347 532 242V192Q460 100 352.5 50.0Q245 0 118 0ZM280 -223Q250 -223 232.0 -205.0Q214 -187 214 -156Q214 -127 232.0 -109.0Q250 -91 280 -91Q310 -91 327.5 -108.5Q345 -126 345 -156Q345 -223 280 -223Z" transform="translate(33.57,0) scale(0.01500,-0.01500)"/></g>
  <g transform="translate(106.47,123)" fill="#312E81"><path d="M195 565Q165 565 147.0 583.0Q129 601 129 632Q129 697 195 697Q225 697 242.5 679.5Q260 662 260 632Q260 565 195 565ZM348 565Q318 565 300.0 583.5Q282 602 282 632Q282 661 300.0 679.0Q318 697 348 697Q378 697 395.5 679.5Q413 662 413 632Q413 565 348 565ZM272 0Q177 0 123 64Q77 119 77 205Q77 295 129.0 362.0Q181 429 277 461Q379 427 431 354Q478 290 478 205Q478 106 418 50Q366 0 282 0ZM271 121H284Q354 121 354 204Q354 299 277 343Q201 299 201 206Q201 121 271 121Z" transform="translate(0.00,0) scale(0.01500,-0.01500)"/><path d="M10 0 73 121H231Q282 121 282 180Q282 290 176 349L238 456Q394 365 406 209Q410 159 428.5 140.0Q447 121 492 121H568V0H485Q411 0 360 41Q323 0 254 0Z" transform="translate(8.12,0) scale(0.01500,-0.01500)"/><path d="M-30 0V121H60Q98 121 114.0 137.5Q130 154 130 193V378L256 444V187Q256 96 200 45Q151 0 72 0ZM24 -223Q-6 -223 -24.0 -205.0Q-42 -187 -42 -156Q-42 -91 24 -91Q54 -91 71.5 -108.5Q89 -126 89 -156Q89 -223 24 -223ZM178 -223Q148 -223 130.0 -205.0Q112 -187 112 -156Q112 -91 178 -91Q208 -91 225.5 -108.5Q243 -126 243 -156Q243 -223 178 -223Z" transform="translate(16.19,0) scale(0.01500,-0.01500)"/><path d="M274 0Q183 0 133 58Q90 108 90 187V579L216 645V193Q216 154 232.0 137.5Q248 121 286 121H376V0Z" transform="translate(21.38,0) scale(0.01500,-0.01500)"/><path d="M622 121H706V0H621Q542 0 494.5 17.5Q447 35 406 79Q281 0 118 0H-30V121H119Q295 121 399 226Q331 345 234 345Q154 345 59 258V369Q143 461 249 461Q327 461 401.0 404.0Q475 347 532 242V192Q516 171 490 145Q530 121 622 121Z" transform="translate(26.56,0) scale(0.01500,-0.01500)"/><path d="M130 276Q130 366 186 417Q235 461 312 461Q411 461 466 388Q513 327 513 231Q513 120 454 56Q401 0 319 0Q239 0 188 35Q140 0 72 0H-30V121H60Q98 121 114.0 137.5Q130 154 130 193ZM256 177Q256 121 315 121Q389 121 389 235Q389 344 312 344Q256 344 256 278Z" transform="translate(36.70,0) scale(0.01500,-0.01500)"/></g>
</svg>